<svg
    xmlns="http://www.w3.org/2000/svg"
    viewBox="0 0 16 16"
>

    <path
        d="M2.7305 2.521 3.8591 1.3924 8.3735 1.3924 9.5021 2.521 9.5021 10.4212 8.3735 11.5498 3.8591 11.5498 2.7305 10.4212Z"
        fill="#939393"
    />
    <path
        d="M1.6019 11.5498 1.6019 1.3924 2.7305.2638 9.5021.2638 10.6307 1.3924 10.6307 11.5498 9.5021 12.6784 2.7305 12.6784ZM2.7305 2.521 3.8591 1.3924 8.3735 1.3924 9.5021 2.521 9.5021 10.4212 8.3735 11.5498 3.8591 11.5498 2.7305 10.4212Z"
        fill-rule="evenodd"
        fill="#474747"
        stroke="black"
        stroke-width="0.2"
        stroke-alignment="inner"
    />
    <path
        d="M4.656 3.0844 5.9635 2.169 10.4093 2.9529 11.3247 4.2603 9.9529 12.0405 8.6455 12.9559 4.1996 12.172 3.2842 10.8646Z"
        fill="#939393"
    />
    <path
        d="M1.9767 11.7801 3.7405 1.777 5.048.8615 11.7167 2.0374 12.6322 3.3448 10.8684 13.3479 9.5609 14.2634 2.8922 13.0875ZM4.656 3.0844 5.9635 2.169 10.4093 2.9529 11.3247 4.2603 9.9529 12.0405 8.6455 12.9559 4.1996 12.172 3.2842 10.8646Z"
        fill-rule="evenodd"
        fill="#474747"
        stroke="black"
        stroke-width="0.2"
        stroke-alignment="inner"
    />
    <path
        d="M6.4544 3.9736 7.901 3.2991 12.1432 4.8431 12.8176 6.2896 10.1156 13.7135 8.6691 14.388 4.4269 12.844 3.7524 11.3975Z"
        fill="#939393"
    />
    <path
        d="M2.3058 12.0719 5.7799 2.5271 7.2264 1.8526 13.5897 4.1686 14.2642 5.6152 10.7902 15.16 9.3437 15.8345 2.9804 13.5184ZM6.4544 3.9736 7.901 3.2991 12.1432 4.8431 12.8176 6.2896 10.1156 13.7135 8.6691 14.388 4.4269 12.844 3.7524 11.3975Z"
        fill-rule="evenodd"
        fill="#474747"
        stroke="black"
        stroke-width="0.2"
        stroke-alignment="inner"
    />
</svg>
